<svg width="80" height="80" viewBox="0 0 80 80" fill="none" xmlns="http://www.w3.org/2000/svg">
<g clip-path="url(#clip0)">
<path d="M39.8813 80C61.9071 80 79.7626 62.0914 79.7626 40C79.7626 17.9086 61.9071 0 39.8813 0C17.8555 0 0 17.9086 0 40C0 62.0914 17.8555 80 39.8813 80Z" fill="#424242"/>
<path d="M40.2177 53.5L35.0065 48.8642L29.331 56.7356L50.966 78.4329C64.3769 74.5487 74.8811 63.7956 78.4476 50.2173L50.9437 22.6318L25.7764 29.5804L36.8259 40.6389L36.2612 43.16L44.9406 51.5787C44.9406 51.5786 41.9584 53.8228 40.2177 53.5Z" fill="#424242"/>
<path d="M50.9437 22.6318C48.4444 19.8382 44.2701 18.1704 39.7774 18.1704C38.867 18.1704 37.9538 18.2543 37.0633 18.4198L36.7889 18.4706C34.0552 18.9771 31.5787 20.2374 29.6267 22.1149C27.7141 23.9559 26.4363 26.2681 25.9314 28.8013L25.7762 29.5803L35.0061 30.2807L35.1938 29.7942C35.7288 28.4082 37.0184 27.3696 38.5593 27.0838L38.8336 27.0331C40.5744 26.7106 42.362 27.2995 43.4999 28.5713C45.0087 30.2571 44.8581 32.9654 43.1707 34.4856C42.3535 35.2221 38.3304 36.0726 36.9922 36.0167L36.2611 35.9853V43.1599L36.9922 43.1285C38.3393 43.0718 42.3538 43.9232 43.1709 44.6596C44.8581 46.1798 45.0087 48.8881 43.4998 50.574C42.362 51.8457 40.5742 52.4348 38.8335 52.1121L38.5595 52.0613C37.0184 51.7756 35.7288 50.737 35.1938 49.351L35.0061 48.8645L25.7762 49.5649L25.9314 50.3438C26.4362 52.8771 27.7139 55.1893 29.6268 57.0304C31.5785 58.9079 34.0552 60.1681 36.7889 60.6746L37.063 60.7254C37.9538 60.8909 38.867 60.9748 39.7774 60.9748C44.2701 60.9748 48.4444 59.307 50.9435 56.5135C55.1548 51.807 54.9563 44.4896 50.5841 39.5726C54.9563 34.6556 55.1549 27.3382 50.9437 22.6318Z" fill="#F8FFFB"/>
<path d="M50.5838 39.5719C54.9567 44.4891 55.1546 51.8063 50.9437 56.5141C48.4636 59.2844 44.3352 60.9484 39.8813 60.9734V52.1969C41.2647 52.1703 42.592 51.5906 43.5002 50.5734C45.0082 48.8875 44.8587 46.1797 43.1715 44.6594C42.7197 44.2531 41.2943 43.8109 39.8813 43.5063V35.6375C41.2943 35.3328 42.7197 34.8922 43.1715 34.4859C44.8587 32.9656 45.0082 30.2578 43.5002 28.5719C42.592 27.5547 41.2647 26.975 39.8813 26.9484V18.1719C44.3352 18.1969 48.4636 19.8594 50.9437 22.6312C55.1546 27.3375 54.9567 34.6547 50.5838 39.5719Z" fill="#F8FFFB"/>
</g>
<defs>
<clipPath id="clip0">
<rect width="79.7626" height="80" fill="white"/>
</clipPath>
</defs>
</svg>
