<svg width="80" height="80" viewBox="0 0 80 80" fill="none" xmlns="http://www.w3.org/2000/svg">
<path d="M40 80C62.0914 80 80 62.0914 80 40C80 17.9086 62.0914 0 40 0C17.9086 0 0 17.9086 0 40C0 62.0914 17.9086 80 40 80Z" fill="#424242"/>
<path d="M53.3067 77.7303C65.5429 73.4146 75.0498 63.3173 78.5456 50.7176L45.9984 18.1704C45.9984 18.1704 32.1371 29.7799 32.7062 32.9657L39.0653 39.2481L36.9359 61.3595L53.3067 77.7303Z" fill="#424242"/>
<path d="M45.9983 18.1704V61.3595H36.9358V29.3188L32.7061 32.9657L26.7889 26.1017L35.442 18.6407L35.9873 18.1704H45.9983Z" fill="#F8FFFB"/>
<path d="M40 18.1704H45.9984V61.3595H40V18.1704Z" fill="#F8FFFB"/>
</svg>
