<svg width="80" height="80" viewBox="0 0 80 80" fill="none" xmlns="http://www.w3.org/2000/svg">
<path d="M40 80C62.0914 80 80 62.0914 80 40C80 17.9086 62.0914 0 40 0C17.9086 0 0 17.9086 0 40C0 62.0914 17.9086 80 40 80Z" fill="#424242"/>
<path d="M79.5059 46.2919L51.8547 18.6406L23.9766 50.6297L51.628 78.2811C66.0998 73.8908 77.0995 61.5211 79.5059 46.2919Z" fill="#232323"/>
<path d="M51.8547 41.5672V18.6406H40.0859L23.9766 41.7516V50.6297H42.7922V61.3594H51.8547V50.6297H57.6469V41.5672H51.8547ZM42.7922 41.5672H35.1516L42.7922 30.6078V41.5672Z" fill="#F8FFFB"/>
<path d="M51.8547 41.5672V18.6406H40.0859L40 18.7641V34.6125L42.7922 30.6078V41.5672H40V50.6297H42.7922V61.3594H51.8547V50.6297H57.6469V41.5672H51.8547Z" fill="#D8D8D8"/>
</svg>
