<svg width="80" height="80" viewBox="0 0 80 80" fill="none" xmlns="http://www.w3.org/2000/svg">
<path d="M40 80C62.0914 80 80 62.0914 80 40C80 17.9086 62.0914 0 40 0C17.9086 0 0 17.9086 0 40C0 62.0914 17.9086 80 40 80Z" fill="#424242"/>
<path d="M44.3106 79.7682C61.5035 77.9256 75.4348 65.1906 79.07 48.5993L53.2782 22.8074C53.2782 22.8074 32.1773 22.2243 24.5554 34.7603L35.7871 46.0204L25.7854 61.3593L44.3106 79.7682Z" fill="#424242"/>
<path d="M56.637 61.3591H25.7854V50.9452L45.5992 35.9447C48.1117 34.0425 47.5062 31.3902 47.2609 30.6225C47.0245 29.8832 46.0183 27.4632 42.9943 27.3749C42.927 27.373 42.8084 27.3719 42.7609 27.3716H39.2575C34.0967 27.3716 33.6958 33.0268 33.6958 34.76H24.5556C24.5556 25.0282 30.6012 18.2314 39.2575 18.2314L42.8126 18.2316C42.8126 18.2316 43.1114 18.2343 43.2601 18.2385C49.1704 18.4111 54.1578 22.1797 55.9672 27.8393C57.7997 33.5718 55.8956 39.6136 51.1164 43.2319L39.2458 52.2189H56.6372V61.3591H56.637Z" fill="#F8FFFB"/>
<path d="M51.1162 43.2316L40.6051 51.1899V39.7254L45.599 35.9447C48.111 34.0427 47.5059 31.3904 47.2615 30.623C47.0251 29.8824 46.0181 27.4633 42.994 27.3752C42.9262 27.3737 42.8081 27.3721 42.7607 27.3721H40.6049V18.2319H42.8128C42.8128 18.2319 43.1106 18.2351 43.2603 18.2382C49.1698 18.4115 54.1575 22.1794 55.9667 27.8401C57.7995 33.5715 55.8959 39.6135 51.1162 43.2316Z" fill="#F8FFFB"/>
<path d="M40.6051 52.2188H56.6367V61.3589H40.6051V52.2188Z" fill="#F8FFFB"/>
</svg>
