<svg width="80" height="80" viewBox="0 0 80 80" fill="none" xmlns="http://www.w3.org/2000/svg">
<path d="M40 80C62.0914 80 80 62.0914 80 40C80 17.9086 62.0914 0 40 0C17.9086 0 0 17.9086 0 40C0 62.0914 17.9086 80 40 80Z" fill="#424242"/>
<path d="M49.5394 78.8523C65.9645 74.8331 78.4081 60.6727 79.8564 43.3831L55.1139 18.6406L31.1886 21.198L24.7767 42.0031L34.6108 51.5767L28.558 57.9359L49.5394 78.8523Z" fill="#232323"/>
<path d="M36.5765 27.7031L35.7218 32.7125L39.3296 32.5422C43.439 32.3469 47.4999 33.5766 50.4718 36.4219C56.203 41.9094 56.6905 50.9641 51.5812 57.0344C48.6093 60.5656 44.2546 62.5453 39.7374 62.5453C38.7437 62.5453 37.7421 62.45 36.7452 62.2531L36.428 62.1906C33.4218 61.5984 30.6999 60.1266 28.5577 57.9359C26.4624 55.7922 25.0687 53.1109 24.5171 50.1687L33.6796 49.4297C34.3905 51.3875 36.0968 52.8891 38.1812 53.3L38.4983 53.3625C40.7874 53.8141 43.1437 52.9844 44.6468 51.1984C46.6874 48.775 46.4937 45.1594 44.2046 42.9672C43.0171 41.8297 41.3952 41.225 39.7546 41.3L24.7765 42.0031L29.0077 18.6406H55.1137V27.7031H36.5765Z" fill="#F8FFFB"/>
<path d="M50.4719 36.4217C56.2031 41.9092 56.6906 50.9639 51.5812 57.0342C48.6672 60.4967 44.4234 62.4686 40 62.542V53.478C41.7766 53.4061 43.4719 52.5936 44.6469 51.1983C46.6875 48.7749 46.4938 45.1592 44.2047 42.967C43.0766 41.8858 41.5562 41.2858 40 41.2936V32.5233C43.8781 32.4858 47.6609 33.7311 50.4719 36.4217Z" fill="#D8D8D8"/>
<path d="M40 18.6406H55.1141V27.7031H40V18.6406Z" fill="#D8D8D8"/>
</svg>
