<svg width="80" height="80" viewBox="0 0 80 80" fill="none" xmlns="http://www.w3.org/2000/svg">
<path d="M40 80C62.0914 80 80 62.0914 80 40C80 17.9086 62.0914 0 40 0C17.9086 0 0 17.9086 0 40C0 62.0914 17.9086 80 40 80Z" fill="#424242"/>
<path d="M79.0841 48.5354L51.5661 21.0176C51.5661 21.0176 30.79 20.9299 30.79 40.0624C30.79 59.1949 30.79 59.1949 30.79 59.1949L50.2639 78.6687C64.6772 74.8527 75.8977 63.194 79.0841 48.5354Z" fill="#232323"/>
<path d="M39.9603 33.9175C38.1188 33.9175 36.3575 34.2675 34.7392 34.9041C34.8658 33.1394 35.585 31.4758 36.7999 30.1705C39.0092 27.7967 42.503 27.0441 45.4936 28.2981L48.0624 29.375L51.5664 21.0172L48.9977 19.9403C42.5195 17.2242 34.9516 18.8544 30.1661 23.9963C27.2569 27.122 25.6545 31.1952 25.6545 35.4653V47.5931V48.2231C25.6545 56.1114 32.0722 62.5291 39.9605 62.5291C47.8486 62.5291 54.2663 56.1116 54.2663 48.2231C54.2661 40.3352 47.8484 33.9175 39.9603 33.9175ZM39.9603 53.4666C37.0692 53.4666 34.717 51.1144 34.717 48.2231C34.717 45.332 37.0692 42.9799 39.9603 42.9799H39.9605C42.8516 42.9799 45.2038 45.332 45.2038 48.2231C45.2036 51.1145 42.8514 53.4666 39.9603 53.4666Z" fill="#F8FFFB"/>
<path d="M45.4938 28.2982L48.0625 29.3748L51.5656 21.017L48.9969 19.9404C46.1 18.7263 42.9859 18.381 40 18.8295V28.1092C41.7578 27.5154 43.7156 27.5513 45.4938 28.2982ZM40 33.917V42.9795C41.4297 42.9904 42.7266 43.5779 43.6656 44.517C44.6156 45.467 45.2031 46.7779 45.2031 48.2232C45.2031 51.1013 42.8734 53.4451 40 53.467V62.5295C47.8703 62.5076 54.2656 56.0982 54.2656 48.2232C54.2656 40.3467 47.8703 33.9388 40 33.917Z" fill="#D8D8D8"/>
</svg>
