<svg width="404" height="525" viewBox="0 0 404 525" fill="none" xmlns="http://www.w3.org/2000/svg">
<g clip-path="url(#clip0)" filter="url(#filter0_d)">
<path d="M153.506 113.599L140.892 104.348C140.892 104.348 137.161 104.348 137.161 102.213C137.161 100.077 142.846 100.255 142.846 100.255C142.846 100.255 142.491 91.8931 143.557 89.5801C144.623 87.2671 147.11 89.5801 147.11 89.5801C147.11 89.5801 148.176 78.549 149.42 72.4997C150.664 66.4504 150.841 65.2049 155.106 55.2413C159.37 45.2777 163.278 39.7622 163.278 39.7622C163.278 39.7622 169.675 31.2219 174.472 26.9518C179.269 22.6817 187.797 17.1662 198.813 12.5402C207.518 8.98179 217.468 4 228.661 4C239.855 4 243.763 8.09219 252.114 12.1844C260.464 16.2766 270.592 20.7246 277.343 27.1298C284.095 33.5349 293.333 49.9037 293.333 49.9037C293.333 49.9037 300.263 66.9841 301.151 76.236C302.039 85.4879 301.151 104.881 301.151 104.881C301.151 104.881 305.593 104.348 303.994 115.912C303.546 119.152 308.258 115.201 309.502 122.851C310.107 126.575 301.151 128.011 301.151 128.011L285.694 128.901L286.404 120.36L154.217 105.593L153.506 113.599Z" fill="white"/>
<path d="M364.21 520.909C363.091 520.929 361.97 520.966 360.85 520.966C333.438 520.966 306.025 520.966 278.612 520.966C277.663 520.966 276.716 520.986 275.769 520.996L275.558 520.941C274.22 520.251 273.578 519.046 273.232 517.669C269.984 504.766 266.773 491.871 265.54 478.552C264.968 472.367 263.973 466.216 263.298 460.035C263.099 458.222 262.97 456.423 263.092 454.607C263.117 454.146 263.247 453.696 263.472 453.294C265.096 451.961 267.07 452.289 268.914 452.276C277.711 452.212 286.504 452.258 295.302 452.244C302.132 452.235 302.336 452.041 302.359 445.366C302.359 443.631 302.699 441.925 302.754 440.206C302.812 438.348 303.043 436.309 300.883 435.244C299.904 433.596 300.94 431.813 300.472 430.038C299.62 426.794 299.063 423.455 298.323 420.181C297.546 416.751 298.278 413.649 299.861 410.696C302.253 406.282 303.799 401.459 304.42 396.476C305.035 391.512 306.524 386.897 309.503 382.798C311.911 379.489 313.542 375.763 314.789 371.886C316.422 366.817 317.738 361.631 320.753 357.102C317.984 359.481 316.022 362.367 315.263 365.915C314.053 371.567 312 376.795 308.412 381.394C306.351 384.04 305.476 387.237 304.891 390.493C303.983 395.535 302.498 400.357 300.236 404.986C297.948 409.668 297.436 414.685 298.232 419.862C298.726 423.065 298.173 426.268 297.228 429.306C296.445 431.829 295.823 434.167 297.471 436.53C296.596 437.352 295.478 437.612 294.368 437.569C290.148 437.409 285.987 438.318 281.769 438.165C278.476 438.038 275.227 438.952 272.482 440.777C269.533 442.704 266.342 444.232 262.993 445.321C258.135 446.901 254.416 450.291 250.723 453.666C248.019 454.772 245.19 454.059 242.424 454.24C241.326 454.312 240.219 454.24 239.117 454.272C231.676 453.463 224.303 452.212 216.958 450.787C216.009 449.211 216.569 447.419 216.615 445.834C216.914 435.795 215.244 425.849 215.432 415.827C215.675 402.796 217.651 390.089 221.865 377.713C225.829 366.073 230.415 354.736 236.612 344.086C238.104 341.518 240.137 339.406 241.99 337.147C247.892 329.929 253.894 322.799 260.69 316.394C263.279 313.957 266.224 311.971 269.149 310C276.597 304.979 284.194 300.198 292.669 297.035C296.155 295.734 299.316 293.743 302.755 292.332C305.079 291.378 307.375 290.402 309.88 290.048C311.612 289.802 311.746 289.115 310.562 287.932C306.959 284.331 303.502 280.568 299.724 277.162C295.437 273.302 291.432 269.092 286.532 265.934C285.063 264.987 283.594 264.133 281.902 263.692C277.935 262.657 276.535 263.245 274.603 266.877C272.047 271.681 269.167 276.296 266.4 280.977C265.157 283.089 264.546 285.311 265.512 287.658C267.871 293.394 266.843 298.867 264.24 304.169C259.649 313.505 253.795 322.018 247.391 330.208C241.281 338.022 234.654 345.426 228.946 353.56C226.469 357.09 223.64 360.36 221.27 363.983C219.79 366.244 218.818 368.634 218.943 371.26C219.462 382.3 217.532 393.076 215.979 403.931C214.773 412.37 214.071 420.898 214.183 429.476C214.272 436.354 214.52 443.245 213.941 450.114C213.16 450.629 212.303 450.536 211.438 450.458C200.9 449.508 190.697 447.049 180.665 443.755C175.101 441.93 169.5 440.224 163.964 438.283C156.076 435.516 147.718 435.235 139.533 434.107C133.993 433.343 128.711 432.055 123.871 429.171C122.293 428.232 120.495 427.88 118.703 427.584C116.672 427.059 114.661 427.406 112.626 427.625C111.057 427.803 109.467 428.488 107.875 427.693C106.696 426.038 107.189 424.214 107.38 422.437C108.206 414.712 109.455 407.027 110.087 399.291C110.869 389.74 109.565 380.293 106.946 371.117C105.294 365.322 105.916 359.908 107.893 354.432C109.179 350.873 110.595 347.374 111.979 343.86C109.81 349.863 106.715 355.562 106.01 362.063C105.924 362.833 106.047 364.198 105.061 364.209C103.805 364.219 103.679 362.84 103.601 361.83C103.265 357.501 103.682 353.208 104.334 348.931C104.905 345.194 105.77 341.504 106.289 337.754C105.278 342.755 104.059 347.701 103.364 352.783C102.687 357.736 103.098 362.305 105.34 366.86C107.102 370.439 107.596 374.428 107.607 378.462C107.607 382.435 108.684 386.356 108.57 390.32C108.348 398.072 108.291 405.835 106.806 413.514C105.857 418.414 105.447 423.412 105.868 428.431C105.703 429.457 105.303 430.432 104.7 431.278C102.213 434.744 101.474 438.612 101.84 442.775C101.891 443.373 101.822 443.98 101.85 444.579C102.112 449.951 101.708 455.109 99.2156 460.114C97.2612 464.028 97.6326 464.197 101.452 466.145C103.052 466.964 104.777 467.554 106.306 468.522C112.996 471.438 119.403 475 126.355 477.319C128.86 478.251 131.33 479.276 133.876 480.091C135.277 480.544 136.393 481.252 136.482 482.918C137.193 490.273 133.966 496.44 130.043 502.133C125.937 508.085 120.909 513.376 116.857 519.392C116.422 520.041 115.827 520.568 115.13 520.92L114.986 520.964C82.2386 520.964 49.4926 520.961 16.7479 520.954C15.5415 520.954 14.3351 520.923 13.1305 520.907C11.7983 518.681 10.8909 516.225 10.4548 513.666C10.2233 512.481 9.8813 511.32 9.43319 510.198C8.16639 506.807 6.71838 503.478 5.5795 500.046C4.35438 496.459 3.83607 492.667 4.05331 488.882C4.51348 481.311 4.89369 473.744 4.49749 466.122C3.96448 455.858 3.9858 445.552 4.44774 435.278C4.75511 428.481 5.63991 421.715 6.22445 414.936C6.83741 407.871 7.6849 400.841 9.50425 394.025C11.8797 385.129 13.6458 376.055 17.1334 367.459C18.6312 363.771 19.0594 359.777 19.9353 355.912C21.0458 351.005 23.3626 346.513 24.8657 341.75C27.4366 333.601 31.0184 325.81 33.2411 317.552C34.2307 313.866 36.0625 310.508 37.4359 306.973C40.2697 299.678 44.1234 292.955 48.7482 286.69C51.1023 283.5 53.659 280.463 56.2388 277.438C59.7531 273.334 64.0172 270.072 68.6349 267.345C71.9733 265.373 75.7417 264.276 79.3325 262.806C84.7603 260.58 90.4565 259.15 96.0051 257.29C101.484 255.456 106.971 253.693 112.585 252.351C118.271 250.994 123.976 249.665 129.693 248.437C135.153 247.261 139.385 244.08 143.28 240.336C145.893 237.824 148.255 235.034 150.989 232.664C156.26 228.09 161.024 222.937 166.722 218.843C168.394 217.643 169.9 216.189 171.391 214.751C172.265 213.91 173.065 213.575 174.099 214.372C175.52 216.329 175.01 218.577 174.724 220.612C173.898 226.501 174.546 232.325 175.079 238.155C175.257 240.148 175.399 242.085 175.067 244.073C174.356 248.353 175.289 252.111 178.695 255.074C182.005 257.951 183.577 261.641 183.735 266.021C183.819 268.277 184.539 270.385 185.498 272.462C188.822 279.659 193.671 285.822 198.429 292.065C204.384 300.936 206.294 311.078 207.446 321.422C207.717 323.851 208.634 326.336 207.623 328.824C206.312 328.646 206.266 328.664 205.911 327.167C205.103 323.632 204.483 320.056 204.054 316.455C203.793 314.394 203.441 312.348 202.707 310.405C199.164 301.004 195.044 291.966 188.458 284.162C182.504 277.106 177.643 269.204 172.112 261.815C169.93 258.902 167.621 256.122 164.95 253.657C161.519 250.485 157.501 250.56 154.175 253.835C150.541 257.415 147.819 261.792 144.154 265.349C143.722 265.768 143.333 266.238 142.91 266.66C140.028 269.533 139.977 270.085 144.085 270.877C154.644 272.912 162.642 279.2 170.558 285.822C175.189 289.699 179.757 293.618 184.103 297.826C190.176 303.707 195.119 310.427 199.383 317.656C203.217 324.159 204.713 331.46 205.825 338.828C207.247 348.23 207.424 357.718 207.828 367.16C207.554 366.918 208.069 367.123 207.828 367.37C207.586 367.618 207.801 367.783 207.828 367.445C207.867 366.965 207.828 366.477 207.828 365.983C207.382 359.271 207.613 352.56 207.54 345.854C207.529 344.824 207.495 343.785 207.792 342.783C208.91 340.985 209.244 342.438 209.391 343.278C209.702 345.146 209.697 347.057 209.874 348.948C210.134 351.74 210.846 354.498 210.635 357.334C210.599 357.677 211.193 357.257 210.86 357.334C210.773 357.353 210.667 357.051 210.72 356.885C212.646 350.797 214.273 344.593 217.017 338.8C219.907 332.715 223.075 326.767 225.843 320.618C229.921 311.56 236.202 303.92 241.995 295.976C245.99 291.434 249.61 286.564 253.899 282.276C254.058 282.075 254.226 281.883 254.393 281.687C254.56 281.491 254.711 281.258 254.877 281.047C258.73 276.442 261.122 271.327 261.754 265.212C262.605 256.952 265.112 249.021 267.557 241.098C269.415 235.082 269.748 228.933 269.353 222.71C269.202 220.352 269.426 219.824 271.041 219.301C272.905 220.141 273.772 221.886 274.746 223.494C276.041 225.629 277.329 227.791 278.429 230.035C280.728 234.737 283.837 238.883 287.328 242.699C290.288 245.934 293.547 248.9 297.223 251.378C303.727 255.769 310.129 260.313 316.687 264.624C320.284 266.989 324.113 269.005 327.837 271.179C331.906 273.554 336.403 274.803 340.889 276.029C344.794 277.112 348.611 278.492 352.306 280.157C355.294 281.491 358.537 282.208 361.335 283.996C362.718 284.886 364.119 285.72 365.352 286.818C367.428 288.662 369.794 290.103 372.186 291.469C375.25 293.213 377.644 295.691 379.767 298.428C385.902 306.336 390.356 315.14 393.769 324.539C395.945 330.532 397.363 336.773 397.991 343.118C398.3 346.205 398.142 349.523 399.126 352.311C400.284 355.592 400.005 358.716 399.874 361.887C399.598 368.605 398.961 375.306 398.541 382.017C398.282 386.15 398.044 390.29 397.992 394.429C397.912 400.819 397.491 407.186 396.994 413.553C396.747 416.733 396.589 419.93 396.475 423.113C396.072 434.44 394.72 445.606 392.051 456.637C390.512 462.996 389.768 469.542 388.053 475.867C386.431 481.85 385.122 487.94 382.368 493.573C380.989 496.39 379.022 498.806 377.335 501.402C374.328 506.037 371.962 511.067 368.609 515.479C367.197 517.333 365.678 519.102 364.21 520.909Z" fill="#333333"/>
<path d="M170.982 107.152C172.562 106.68 174.02 107.541 175.57 107.563C183.057 107.662 190.467 108.644 197.89 109.539C204.715 110.365 211.509 111.486 218.395 111.804C223.559 112.043 228.564 113.461 233.675 114.041C238.787 114.621 243.929 115.128 249.033 115.864C252.434 116.356 255.863 116.669 259.244 117.256C260.582 117.487 262.033 116.941 263.263 117.836C263.142 118.852 264.199 118.338 264.506 118.797C269.62 121.053 270.672 125.956 271.969 130.579C272.969 134.157 273.024 137.928 273.212 141.622C273.447 146.362 273.269 151.123 273.271 155.874C273.271 157.457 273.058 159.017 272.292 160.391C269.723 164.992 267.998 169.988 265.395 174.589C262.792 179.19 261.235 184.257 258.672 188.871C257.918 190.23 257.234 191.627 256.293 192.874C254.722 194.958 252.832 196.433 250.062 196.536C246.004 196.68 243.04 198.473 241.384 202.348C240.398 204.651 238.868 206.679 237.499 208.766C234.983 212.595 230.951 213.59 226.732 213.942C225.358 214.057 224.536 213.102 224.335 211.709C224.281 211.28 224.252 210.849 224.246 210.417C224.108 206.348 223.18 205.393 219.168 205.9C216.24 206.268 213.319 206.208 210.395 206.361C207.87 206.492 207.543 207.211 208.796 209.449C209.754 211.159 211.319 212.981 209.299 214.787C207.366 216.506 205.486 214.938 203.905 213.897C200.689 211.78 198.397 208.698 196.153 205.631C195.234 204.386 194.294 203.14 193.44 201.84C192.297 200.103 190.745 198.867 188.749 198.393C184.423 197.367 181.365 194.575 179.091 191.05C175.81 185.964 172.414 180.966 168.72 176.185C166.349 173.114 165.036 169.712 164.822 165.94C164.467 159.644 162.799 153.461 163.021 147.139C163.312 138.871 161.969 130.593 163.166 122.335C163.877 117.452 166.062 113.34 169.319 109.733C170.016 108.952 170.76 108.225 170.982 107.152Z" fill="#F6B897"/>
<path d="M170.982 107.152C171.6 107.49 172.677 107.637 171.515 108.644C169.145 110.703 167.306 113.151 165.84 115.948C163.62 120.19 163.62 124.787 163.509 129.345C163.408 133.573 163.772 137.813 163.664 142.04C163.497 148.623 164.169 155.126 165.224 161.611C165.579 163.821 165.451 166.088 165.819 168.316C166.154 170.448 166.975 172.475 168.219 174.239C172.03 179.679 176.087 184.935 179.631 190.581C181.714 193.899 184.615 196.698 188.82 197.664C191.13 198.197 192.919 199.621 194.275 201.724C196.496 205.229 199.074 208.495 201.966 211.469C203.305 212.823 204.903 213.892 206.666 214.611C207.483 214.952 208.337 215.299 209.029 214.451C209.72 213.602 210.022 212.632 209.359 211.591C208.805 210.718 208.254 209.841 207.689 208.974C206.522 207.179 206.939 206.149 209.036 205.736C209.463 205.674 209.894 205.643 210.326 205.643C213.346 205.505 216.354 205.357 219.369 205.243C220.577 205.17 221.789 205.248 222.978 205.476C225.044 205.921 225.195 206.147 224.951 208.248C224.825 209.192 224.774 210.143 224.799 211.095C224.88 212.974 225.355 213.461 227.158 213.342C230.243 213.137 233.021 211.985 235.541 210.234C236.023 209.868 236.426 209.409 236.726 208.883C238.161 206.528 239.798 204.257 240.901 201.751C242.553 198.002 245.25 195.918 249.252 195.988C253.183 196.057 255.275 193.646 256.891 190.753C258.871 187.225 260.569 183.524 262.19 179.809C263.295 177.276 264.281 174.708 265.841 172.397C266.472 171.467 266.99 170.464 267.383 169.41C268.524 166.337 269.896 163.354 271.487 160.489C272.375 158.877 272.731 157.108 272.759 155.253C272.908 147.381 272.642 139.533 271.56 131.728C271.1 128.419 269.637 125.465 268.131 122.558C267.227 120.814 265.393 119.982 263.828 118.919C263.828 117.878 264.474 118.336 264.961 118.416C267.207 118.464 269.328 119.22 271.535 119.553C275.948 120.22 280.388 120.478 284.835 120.743C287.131 120.88 287.275 121.124 286.989 123.412C286.905 124.091 286.705 124.755 286.61 125.433C286.385 127.034 285.996 128.714 287.993 129.616C288.126 129.676 288.098 130.096 288.144 130.349C288.677 132.662 287.126 134.107 285.795 135.489C283.576 137.802 281.664 140.345 279.559 142.731C276.938 145.698 276.863 149.159 277.071 152.714C277.631 162.619 278.182 172.513 275.712 182.279C275.534 183.019 275.357 183.793 275.41 184.578C274.522 186.814 274.369 189.234 273.989 191.554C273.113 196.826 270.91 201.453 267.781 205.61C259.633 216.438 249.719 225.25 237.719 231.634C233.597 233.826 229.139 234.783 224.589 235.262C218.761 235.872 212.897 236.059 207.042 235.821C198.313 234.431 191.615 229.659 185.764 223.291C183.394 220.712 180.612 218.507 178.164 215.977C176.474 214.232 175.015 212.349 174.255 209.997C172.752 207.385 171.194 204.802 169.76 202.151C167.898 198.712 167.105 194.876 165.995 191.175C164.389 185.886 163.474 180.412 163.271 174.888C163.248 174.208 163.257 173.497 162.806 172.908C161.917 172.006 162.095 170.842 162.028 169.735C161.683 163.974 161.057 158.236 160.667 152.477C160.638 152.048 160.466 151.609 160.539 151.194C161.55 145.428 158.78 140.651 156.61 135.683C155.607 133.381 154.027 131.121 155.011 128.351C154.388 122.709 154.354 117.048 154.478 111.383C154.501 110.267 154.478 109.143 154.601 108.038C154.811 106.159 155.001 105.988 156.87 106.285C161.553 107.032 166.256 107.253 170.982 107.152Z" fill="#2D1B1B"/>
<path d="M174.264 209.997C177.263 214.47 181.056 218.182 185.082 221.719C187.657 223.984 189.675 226.868 192.635 228.741C194.527 229.939 196.394 231.177 198.285 232.376C200.89 234.027 203.858 234.591 206.813 235.212C207.346 235.623 207.998 235.515 208.56 235.429C213.231 234.718 216.722 237.011 219.911 239.931C229.15 248.382 238.286 256.888 245.48 267.29C248.597 271.744 251.486 276.354 254.136 281.102C254.341 281.483 254.437 281.914 254.415 282.347C251.629 285.601 248.882 288.889 246.039 292.094C244.902 293.375 244.042 294.899 242.663 295.962C239.846 297.255 236.891 296.604 233.995 296.513C224.847 296.227 215.78 294.999 206.696 294.022C203.723 293.698 200.667 293.624 197.901 292.223C192.821 286.231 188.278 279.886 184.828 272.784C183.709 270.547 183.085 268.094 183 265.594C182.886 261.877 181.562 258.744 178.789 256.216C177.069 254.648 175.436 253.001 174.703 250.668C174.114 248.763 173.985 246.745 174.326 244.781C174.962 240.957 174.258 237.212 173.932 233.458C173.573 229.511 173.581 225.539 173.955 221.594C174.189 219.192 174.331 216.79 174.115 214.37L174.264 209.997Z" fill="#F8C2A6"/>
<path d="M254.409 282.349C252.243 279.757 251.023 276.584 249.195 273.773C247.458 271.113 245.59 268.542 243.596 266.069C243.273 265.667 242.862 265.316 242.617 264.873C240.112 260.365 236.521 256.782 232.872 253.234C229.964 250.408 227.252 247.362 224.23 244.676C221.167 241.945 218.31 238.949 214.636 236.913C213.215 236.123 211.884 235.668 210.278 235.668C209.121 235.668 207.854 236.123 206.804 235.207C208.874 235.207 210.946 235.287 213.023 235.223C219.312 235.027 225.596 234.821 231.749 233.237C235.395 232.3 238.74 230.661 241.836 228.659C248.951 224.056 255.49 218.696 261.275 212.468C267.155 206.142 272.073 199.226 273.918 190.552C274.328 188.618 274.701 186.675 275.09 184.738C275.157 184.777 275.215 184.829 275.261 184.891C275.308 184.953 275.341 185.024 275.36 185.099C275.378 185.175 275.382 185.253 275.37 185.329C275.358 185.406 275.331 185.479 275.291 185.545C275.096 188.814 274.093 191.951 273.848 195.226C273.333 202.076 271.647 208.794 271.521 215.687C271.496 216.901 271.335 218.108 271.039 219.285C269.618 219.747 269.973 220.971 270.094 221.9C270.416 224.391 270.131 226.873 270.115 229.36C270.085 234.164 269.135 238.771 267.681 243.295C265.439 250.271 263.636 257.351 262.529 264.598C262.36 265.703 262.269 266.82 262.12 267.928C261.385 273.444 258.641 277.919 254.884 281.863C254.771 282.053 254.618 282.215 254.436 282.34L254.409 282.349Z" fill="#F6B897"/>
<path d="M275.286 185.553C275.218 185.284 275.152 185.019 275.085 184.745C275.208 181.806 275.748 178.918 276.192 176.027C277.304 168.805 277.022 161.563 276.505 154.32C276.357 152.246 276.432 150.182 276.419 148.113C276.409 146.445 276.821 144.85 277.954 143.547C280.442 140.688 282.528 137.482 285.417 134.973C286.838 133.738 287.44 132.011 288.144 130.347C291.687 130.495 293.046 131.658 293.776 135.446C294.757 140.54 294.462 145.565 292.573 150.433C291.983 151.954 291.416 153.497 290.489 154.868C289.238 156.739 288.469 158.892 288.252 161.133C287.774 165.624 286.154 169.819 284.979 174.121C284.711 175.109 284.226 176.044 283.775 176.968C283.128 178.297 282.085 179.103 280.566 179.249C279.882 179.311 279.203 179.542 278.525 179.534C277.254 179.516 276.696 180.158 276.433 181.325C276.112 182.754 275.673 184.147 275.286 185.553Z" fill="#F6B897"/>
<path d="M232.185 88.0358C233.251 85.7335 232.54 82.5772 233.034 79.4956C233.497 76.6346 233.792 73.7238 234.158 70.8326C234.603 67.34 235.267 63.8937 235.837 60.426C236.784 54.6702 237.868 48.9358 239.428 43.3082C241.756 34.9174 244.472 26.6672 248.276 18.812C248.614 18.1181 248.912 17.3886 249.52 16.8548C250.25 16.2001 251.144 16.056 251.915 16.499C252.686 16.942 253.045 17.7818 252.7 18.739C252.439 19.4667 252.22 20.2211 251.881 20.9114C247.171 30.4676 244.135 40.6109 241.69 50.9196C240.446 56.163 239.796 61.5487 238.918 66.8756C238.225 71.1012 237.593 75.3358 236.943 79.5685C236.86 79.9926 236.832 80.4255 236.859 80.8567C237.142 83.5468 236.404 86.1605 236.289 88.824C236.196 90.959 235.086 92.3539 233.867 92.2525C232.604 92.1475 232.16 91.2152 232.185 88.0358Z" fill="#F2F2F3"/>
<path d="M155.02 128.353C155.566 132.733 157.785 136.498 159.54 140.418C160.834 143.307 161.532 146.173 161.418 149.401C161.292 152.92 161.774 156.463 162.012 159.994C162.307 164.296 162.914 168.581 162.815 172.908C159.227 172.492 158.174 171.524 157.527 168.058C157.417 167.465 157.151 166.866 157.193 166.279C157.483 162.364 155.98 158.884 154.805 155.269C152.723 148.864 151.191 142.329 151.828 135.48C151.96 133.936 152.257 132.411 152.716 130.931C153.094 129.753 153.704 128.723 155.02 128.353Z" fill="#F6B897"/>
<path d="M228.562 36.7891C229.203 33.8196 229.585 30.384 230.907 27.1814C231.662 25.3524 232.442 23.5322 233.227 21.7156C233.823 20.3385 235.246 19.3351 236.125 19.6446C237.284 20.0539 237.685 21.5502 236.978 23.2387C235.415 26.975 233.764 30.6597 233.041 34.6825C232.92 35.3551 232.707 36.0063 232.686 36.7037C232.692 37.1336 232.615 37.5607 232.46 37.9616C232 38.9758 231.561 40.1323 230.161 40.0469C229.134 39.9864 228.528 38.8032 228.562 36.7891Z" fill="#F2F2F3"/>
<path d="M225.092 21.5164C225.431 19.5769 225.986 17.6815 226.746 15.8656C227.586 13.896 228.635 12.0136 229.589 10.0921C229.945 9.4005 230.472 8.81186 231.12 8.38223C231.884 7.85737 232.803 7.73638 233.503 8.36622C234.263 9.05122 234.391 9.96751 233.821 10.9354C232.323 13.4263 230.978 16.0044 230.06 18.7888C229.583 20.246 229.377 21.7957 228.516 23.1248C228.098 23.7671 227.586 24.1176 226.822 24.0482C226.028 23.977 225.614 23.4949 225.435 22.7494C225.318 22.2548 225.165 21.769 225.092 21.5164Z" fill="#F2F2F3"/>
<path d="M264.969 118.403C264.585 118.556 264.105 118.492 263.835 118.907C263.597 118.856 263.367 118.774 263.151 118.663C262.938 118.517 262.419 118.567 262.618 118.106C262.685 117.95 263.043 117.918 263.268 117.829C263.854 117.966 264.508 117.903 264.969 118.403Z" fill="#5E3E35"/>
<path d="M263.472 454.589C263.908 458.439 264.375 462.288 264.766 466.141C265.054 468.97 265.411 471.789 265.807 474.605C266.408 478.875 266.75 483.17 267.418 487.415C268.259 492.771 269.064 498.135 270.533 503.384C271.716 507.609 272.576 511.924 273.598 516.194C273.999 517.874 274.552 519.5 275.552 520.932C262.355 520.939 249.158 520.947 235.962 520.955C196.802 520.955 157.643 520.955 118.484 520.955C117.363 520.955 116.242 520.932 115.121 520.92C118.104 516.612 120.925 512.184 124.36 508.207C128.023 503.971 131.731 499.769 133.442 494.255C133.613 493.766 133.832 493.295 134.098 492.851C135.432 490.456 136.072 487.912 135.859 485.158C135.805 484.476 135.912 483.784 135.946 483.096C136.683 482.482 137.431 482.886 138.143 483.119C150.826 487.255 162.811 492.958 174.413 499.475C181.031 503.194 188.046 506.022 194.97 509.083C190.35 506.439 185.777 503.686 180.916 501.535C172.21 497.676 163.803 493.193 156.23 487.479C150.189 482.918 143.836 480.156 136.287 480.204C133.458 480.222 130.905 479.137 128.304 478.247C127.561 477.991 126.833 477.777 126.044 477.831C122.185 476.391 118.251 475.162 114.639 473.084C112.644 471.933 110.425 471.153 108.293 470.227C107.582 469.919 106.813 469.759 106.298 469.116C105.095 467.291 105.463 465.238 105.733 463.33C106.428 458.276 106.288 453.142 105.319 448.134C104.413 443.311 105.448 439.443 109.583 436.615C111.656 435.192 112.891 433.194 113.911 430.943C114.856 428.855 116.261 427.132 118.861 427.045C120.208 426.83 121.409 427.364 122.615 427.812C123.351 428.063 124.059 428.391 124.727 428.791C130.305 432.333 136.665 433.039 142.988 433.84C148.626 434.552 154.306 435.009 159.835 436.388C163.675 437.347 167.53 438.324 171.05 440.231C171.922 440.702 172.896 440.587 173.804 440.871C178.241 442.267 182.688 443.631 187.147 444.964C194.339 447.127 201.631 448.803 209.139 449.394C210.77 449.522 212.349 450.105 214.011 449.928C214.988 449.468 215.862 449.693 216.676 450.328C223.207 451.011 229.646 452.322 236.143 453.235C237.072 453.367 238 453.496 238.929 453.623C245.965 454.03 253.008 453.644 260.043 453.865C261.225 453.9 262.493 453.594 263.472 454.589Z" fill="#F8C2A6"/>
<path d="M216.684 450.328C215.777 450.504 214.836 450.363 214.019 449.927C213.573 449.127 212.953 448.469 213.366 447.335C213.678 446.488 213.527 445.458 213.529 444.512C213.541 437.338 213.396 430.159 213.597 422.983C213.742 417.752 214.455 412.543 214.895 407.326C215.476 400.456 217.155 393.777 217.797 386.918C218.257 381.992 218.069 377.095 218.186 372.187C218.26 369.014 218.896 366.159 220.78 363.468C225.222 357.117 230.06 351.071 234.704 344.876C237.806 340.737 241.414 337.029 244.559 332.935C249.534 326.454 254.571 319.979 258.72 312.935C261.411 308.363 264.304 303.81 265.594 298.509C266.391 295.236 266.482 292.014 265.155 288.921C263.787 285.74 264.316 283.011 266.089 280.125C269.199 275.061 272.352 270.008 274.937 264.646C275.613 263.244 276.563 262.637 278.18 262.617C281.595 262.576 284.489 263.616 287.277 265.631C296.418 272.241 303.995 280.523 311.96 288.395C312.369 288.798 313.066 289.201 312.694 289.877C312.408 290.4 311.733 290.601 311.115 290.627C307.121 290.805 303.653 292.595 300.176 294.275C295.441 296.567 290.64 298.687 285.784 300.716C282.112 302.253 278.992 304.783 275.518 306.688C271.048 309.138 266.953 312.183 262.982 315.323C259.132 318.365 255.795 322.041 252.526 325.722C249.788 328.809 247.249 332.078 244.472 335.127C240.475 339.527 237.049 344.415 234.276 349.674C229.368 358.926 225.591 368.619 222.372 378.547C220.936 382.969 219.618 387.434 218.463 391.936C217.806 394.501 217.456 397.168 217.203 399.814C216.493 407.187 215.782 414.571 216.137 421.992C216.315 425.506 216.574 429.018 217.042 432.516C217.315 434.557 217.079 436.66 217.178 438.731C217.326 441.823 216.763 444.947 217.601 448.01C217.875 448.99 217.114 449.604 216.684 450.328Z" fill="black"/>
<path d="M208.409 341.985C208.385 350.288 208.361 358.595 208.338 366.908C208.066 367.203 207.931 367.767 207.334 367.418C206.69 362.876 207.067 358.284 206.714 353.742C206.106 345.954 205.502 338.131 203.613 330.53C202.389 325.605 200.755 320.796 197.949 316.437C195.144 312.078 192.253 307.804 188.938 303.852C185.665 299.952 181.957 296.426 178.167 293.028C174.267 289.528 170.225 286.172 166.112 282.924C160.354 278.376 154.407 274.028 147.114 272.303C144.949 271.791 142.814 271.161 140.718 270.416C139.223 269.882 139.076 268.975 140.291 268.001C144.353 264.742 147.501 260.641 150.724 256.614C152.074 254.935 153.56 253.37 155.166 251.935C157.543 249.8 162.221 250.174 164.918 252.647C167.461 254.981 169.906 257.436 171.876 260.281C176.533 267.003 181.618 273.417 186.109 280.264C187.944 283.059 190.373 285.423 192.379 288.126C195.545 292.396 197.905 297.047 199.948 301.91C200.946 304.283 202.135 306.571 203.011 309.005C204.304 312.604 204.681 316.364 205.264 320.098C205.738 323.123 206.054 326.214 207.282 329.082C207.483 329.363 207.298 328.95 207.485 329.242C208.878 331.412 209.464 339.559 208.409 341.985Z" fill="black"/>
<path d="M208.409 341.984C208.231 337.67 207.966 333.362 207.291 329.09C207.248 322.774 206.282 316.565 205.004 310.409C203.718 304.21 201.712 298.266 198.148 292.948C198.009 292.739 197.97 292.462 197.894 292.216C201.87 292.254 205.74 293.246 209.698 293.522C216.564 294.001 223.344 295.319 230.264 295.463C234.388 295.549 238.52 295.841 242.655 295.963C240.523 298.976 238.39 302.002 236.223 304.993C231.763 311.144 227.617 317.447 224.751 324.564C223.272 328.231 221.327 331.718 219.463 335.218C216.443 340.883 214.428 346.929 212.637 353.051C212.129 354.791 211.232 356.339 210.642 358.238C209.89 355.83 209.652 353.492 209.434 351.172C209.185 348.516 208.723 345.874 208.805 343.191C208.827 342.753 208.686 342.323 208.409 341.984Z" fill="#FEFEFE"/>
<path d="M300.579 434.984L302.435 434.671C303.423 436.45 303.709 438.407 303.501 440.389C303.191 443.227 303.251 446.074 303.096 448.912C303.057 449.598 302.968 450.283 302.883 450.967C302.766 451.911 302.393 452.49 301.284 452.568C299.229 452.716 297.198 453.061 295.115 453.061C284.958 453.061 274.799 453.127 264.64 453.137C264.167 453.137 263.81 453.18 263.51 453.536C259.261 454.212 255.017 454.852 250.874 453.002C252.171 450.625 254.553 449.428 256.595 447.912C258.95 446.158 261.613 444.862 264.446 444.092C266.446 443.559 268.332 442.667 270.014 441.46C273.978 438.605 278.356 437.215 283.316 437.368C287.003 437.482 290.706 437.135 294.398 436.913C295.414 436.852 296.414 436.507 297.418 436.292C298.205 435.242 299.308 434.913 300.579 434.984Z" fill="#F8C2A6"/>
<path d="M118.87 427.045C116.526 428.305 114.694 429.961 113.865 432.646C113.332 434.397 112.111 435.687 110.533 436.781C108.996 437.849 107.799 439.398 106.447 440.726C105.827 441.332 105.853 442.099 105.791 442.882C105.56 445.832 106.161 448.72 106.502 451.611C106.935 455.312 107.035 458.975 106.482 462.654C106.157 464.802 106.429 466.964 106.305 469.116C103.657 467.891 100.998 466.69 98.3664 465.432C96.7887 464.677 96.8083 464.638 97.3963 462.889C98.1888 460.525 98.9297 458.146 100.168 455.95C101.035 454.418 101.262 452.714 101.254 450.968C101.234 447.006 101.3 443.042 101.232 439.08C101.199 437.035 101.588 435.18 102.68 433.429C103.636 431.897 104.436 430.269 105.303 428.686C105.369 428.598 105.454 428.526 105.551 428.474C105.648 428.423 105.755 428.393 105.864 428.387C106.575 428.501 107.108 428.159 107.598 427.703C107.699 427.661 107.803 427.62 107.906 427.581C110.882 427.141 113.842 426.552 116.876 426.691C117.555 426.72 118.262 426.597 118.87 427.045Z" fill="#F6B897"/>
<path d="M105.766 428.632C105.612 428.646 105.456 428.661 105.301 428.68C104.379 422.718 105.518 416.881 106.438 411.043C106.893 408.152 107.472 405.285 107.366 402.343C107.214 398.199 108.199 394.099 107.847 389.952C107.616 387.216 107.314 384.485 107.03 381.752C106.969 381.154 106.822 380.549 106.852 379.957C107.22 374.114 105.639 368.689 103.258 363.463C101.979 360.657 101.879 357.807 102.48 354.873C102.86 353.014 102.835 351.117 103.1 349.24C103.647 345.493 104.876 341.889 105.242 338.118C105.283 337.7 105.356 337.209 105.598 336.905C106.049 336.35 106.463 335.334 107.326 335.727C108.19 336.12 107.474 336.942 107.337 337.56C106.271 342.339 105.322 347.128 104.672 351.993C104.258 355.096 104.269 358.177 104.228 361.275C104.215 362.207 104.119 363.193 105.129 363.929C105.722 358.25 107.365 352.937 109.613 347.79C110.128 346.609 110.466 345.351 110.892 344.13C111.07 343.643 111.221 343.148 111.438 342.682C111.692 342.148 111.971 341.462 112.724 341.696C113.573 341.96 113.223 342.654 113.067 343.216C112.694 344.548 112.109 345.796 111.578 347.068C110.215 350.326 108.838 353.587 107.705 356.926C106.207 361.335 106.042 365.833 107.515 370.322C108.642 373.843 109.422 377.466 109.842 381.14C110.425 385.915 111.143 390.675 111.05 395.53C110.997 398.389 110.649 401.204 110.34 404.017C109.716 409.733 108.847 415.42 108.293 421.149C108.085 423.284 107.783 425.419 107.884 427.575L107.9 427.775C107.33 428.383 106.642 428.746 105.766 428.632Z" fill="black"/>
<path d="M300.579 434.984C299.662 435.765 298.527 436.018 297.402 436.302C295.046 434.765 294.835 434.443 295.865 431.696C297.093 428.428 297.26 424.978 297.891 421.606C297.951 421.284 297.855 420.921 297.781 420.587C296.429 414.546 297.411 408.844 300.224 403.394C302.265 399.444 303.356 395.19 304.118 390.859C304.88 386.529 306.401 382.627 309.144 379.14C312.195 375.263 313.494 370.6 314.54 365.863C315.491 361.559 318.012 358.23 321.256 355.385C321.347 355.305 321.571 355.375 321.862 355.375C322.153 356.229 321.818 356.997 321.359 357.706C318.954 361.431 317.403 365.5 316.207 369.76C314.734 375.09 312.341 380.121 309.137 384.625C306.732 387.986 305.698 391.911 305.211 395.975C304.6 401.07 303.287 405.97 300.75 410.438C298.632 414.174 298.084 417.989 299.342 422.058C300.341 425.271 300.623 428.641 301.515 431.87C301.853 433.114 301.066 434 300.579 434.984Z" fill="black"/>
<path d="M126.06 477.835C126.739 477.137 127.471 477.434 128.21 477.712C132.605 479.361 137.177 479.863 141.842 480.048C144.847 480.165 147.752 480.921 150.323 482.738C154.603 485.763 158.851 488.86 163.344 491.54C166.429 493.379 169.584 495.15 172.77 496.844C177.567 499.39 182.719 501.171 187.298 504.138C189.751 505.729 192.628 506.59 195.028 508.302C195.682 508.766 197.032 509.142 196.494 510.02C195.796 511.156 194.895 509.917 194.111 509.56C191.137 508.209 188.186 506.809 185.182 505.526C181.376 503.902 177.76 501.911 174.084 500.023C170.032 497.941 166.178 495.486 161.93 493.742C158.686 492.412 155.639 490.613 152.38 489.246C149.283 487.948 146.21 486.626 143.01 485.595C140.64 484.832 138.309 483.943 135.962 483.105C135.869 481.868 135.343 481.137 134.03 480.77C131.303 479.994 128.639 479.013 126.06 477.835Z" fill="#F7B897"/>
<path d="M250.856 453.013C255.042 453.833 259.276 453.466 263.492 453.546C263.561 453.714 263.595 453.893 263.592 454.074C263.589 454.255 263.549 454.433 263.474 454.598C263.129 454.598 262.787 454.577 262.444 454.598C255.07 454.934 247.734 453.74 240.363 454.064C239.844 454.087 239.329 454.055 238.941 453.632H247.912C248.932 453.616 249.975 453.705 250.856 453.013Z" fill="#CE8F6D"/>
<path d="M207.334 367.418C207.669 367.25 208.003 367.08 208.337 366.908C208.282 367.81 208.535 368.742 208.112 369.754C207.078 369.123 207.38 368.205 207.334 367.418Z" fill="black"/>
<path d="M254.432 282.331L254.88 281.854C254.869 281.972 254.819 282.083 254.738 282.17C254.657 282.256 254.549 282.313 254.432 282.331Z" fill="#E49D78"/>
<path d="M202.297 183.191C199.198 183.222 196.091 183.12 193.04 183.844C190.688 184.405 188.907 185.465 188.582 188.172C188.456 189.211 188.047 190.195 187.401 191.018C186.463 192.205 185.136 191.981 184.643 190.545C184.49 190.051 184.424 189.534 184.446 189.017C184.491 185.912 184.498 182.804 184.652 179.702C184.777 177.224 186.512 175.365 189.005 174.996C194.376 174.203 199.813 174.139 205.214 173.662C206.842 173.518 208.48 173.395 210.112 173.393C212.008 173.393 212.516 173.859 212.893 175.735C213.012 176.414 213.071 177.102 213.071 177.792C213.165 181.91 211.919 183.165 207.716 183.195C205.916 183.202 204.105 183.191 202.297 183.191Z" fill="#2D1B1B"/>
<path d="M250.991 181.135C250.909 183.211 250.849 185.286 249.795 187.168C249.461 187.766 249.191 188.478 248.356 188.476C247.521 188.474 247.182 187.802 246.919 187.168C246.326 185.738 245.767 184.291 245.241 182.829C244.872 181.8 244.353 181.304 243.131 181.544C236.713 182.804 230.246 181.688 223.802 181.848C223.37 181.853 222.939 181.819 222.514 181.747C220.577 181.45 220.026 180.891 219.964 178.841C219.938 177.461 220.02 176.081 220.209 174.714C220.453 172.865 221.02 172.362 222.974 172.443C226.414 172.588 229.862 172.822 233.24 173.497C235.807 174.011 238.374 174.018 240.958 173.995C243.113 173.965 245.261 174.257 247.331 174.861C250.392 175.763 250.939 176.434 250.991 179.582C251 180.099 250.991 180.617 250.991 181.135Z" fill="#2D1B1B"/>
<path d="M105.766 428.632C106.326 427.949 107.154 427.94 107.918 427.775C107.154 429.33 107.113 429.345 105.766 428.632Z" fill="#967C66"/>
<path d="M176.659 138.455L177.957 137.201C180.557 134.593 183.121 132.424 185.648 130.695C186.486 130.15 187.317 129.707 188.14 129.358L189.367 128.927L190.578 128.681L191.771 128.636L192.1 128.663C192.188 128.632 192.707 128.748 193.653 129.009L194.739 129.463L195.809 130.071C196.52 130.528 197.224 131.067 197.919 131.689C199.663 133.202 202.051 135.954 205.081 139.949L176.659 138.455Z" fill="white"/>
<path d="M197.619 136.104L197.295 136.769C196.499 138.053 195.345 138.874 193.832 139.23C192.313 139.582 190.779 139.358 189.231 138.557C187.781 137.723 186.807 136.591 186.311 135.163C185.818 133.725 185.947 132.318 186.701 130.941C187.495 129.655 188.65 128.836 190.161 128.478C191.682 128.126 193.214 128.351 194.763 129.151C196.212 129.987 197.186 131.117 197.683 132.547C197.841 133.008 197.934 133.479 197.966 133.959L197.956 134.68C197.918 135.162 197.805 135.638 197.619 136.104Z" fill="#030202"/>
<path d="M233.854 141.92L234.924 140.728C237.067 138.254 239.203 136.173 241.334 134.486C242.044 133.952 242.754 133.505 243.461 133.146L244.518 132.688L245.576 132.394L246.632 132.28L246.924 132.284C247.001 132.252 247.467 132.321 248.323 132.494L249.312 132.83L250.3 133.301C250.957 133.661 251.616 134.096 252.27 134.604C253.909 135.835 256.194 138.127 259.127 141.476L233.854 141.92Z" fill="white"/>
<path d="M251.84 140.089L251.439 140.61C250.519 141.588 249.369 142.097 247.99 142.141C246.605 142.178 245.31 141.712 244.102 140.743C242.988 139.761 242.342 138.604 242.161 137.271C241.986 135.934 242.347 134.73 243.246 133.664C244.166 132.688 245.316 132.177 246.694 132.134C248.08 132.096 249.374 132.562 250.581 133.532C251.697 134.513 252.344 135.672 252.523 137.004C252.579 137.433 252.578 137.86 252.517 138.283L252.383 138.909C252.265 139.32 252.083 139.715 251.84 140.089Z" fill="#030202"/>
<path d="M170 118.852L184.855 117.64L199.709 116.427L206.976 122.796L170 118.852Z" fill="#030202"/>
<path d="M232.603 125.031L234.872 121.42L237.145 117.809L259.013 119.251L232.603 125.031Z" fill="#030202"/>
<path d="M208 166L212.03 169.23L216.062 172.459C218.373 170.448 220.687 168.438 223 166.427L215.658 168.019L208 166Z" fill="#EC2024" fill-opacity="0.1882"/>
<path d="M215.5 195L200 191L235.5 190L232.5 192.5L215.5 195Z" fill="#E58568" stroke="#E58568"/>
<path d="M155.367 367.875L138.565 351.047" stroke="white" stroke-width="2" stroke-miterlimit="3.52094" stroke-linecap="round" stroke-linejoin="round"/>
<path d="M172.599 350.615L168.556 346.565L155.798 333.786" stroke="white" stroke-width="2" stroke-miterlimit="3.52094" stroke-linecap="round" stroke-linejoin="round"/>
<path d="M138.565 351.047L155.798 333.786" stroke="white" stroke-width="2" stroke-miterlimit="3.52094" stroke-linecap="round" stroke-linejoin="round"/>
<path d="M172.599 350.615L155.367 367.875" stroke="white" stroke-width="2" stroke-miterlimit="3.52094" stroke-linecap="round" stroke-linejoin="round"/>
<path d="M160.474 340.955C162.68 342.039 163.642 344.56 162.624 346.599C161.884 348.082 160.537 348.757 159.235 348.626C157.832 348.484 156.873 347.425 156.683 346.47C156.378 344.943 157.968 343.376 159.168 344.281C159.366 344.431 159.748 344.913 159.39 345.344C159.105 345.687 158.771 345.174 158.469 345.534C158.186 345.872 158.389 346.357 158.662 346.579C159.224 347.036 159.829 346.878 160.215 346.664C161.479 345.962 161.363 344.271 160.662 343.364C159.246 341.534 156.418 342.078 155.307 344.164C154.469 345.736 154.8 347.328 155.736 348.573C156.258 349.268 157.03 349.863 157.912 350.172C158.723 350.457 159.573 350.57 160.369 351.062C161.89 352.003 162.546 353.153 162.87 354.271C163.26 355.619 163.24 357.306 162.067 358.917C160.98 360.411 159.161 361 157.584 360.704C154.907 360.2 153.486 357.405 154.788 355.259C155.727 353.712 157.913 353.202 159.081 354.682C159.458 355.159 159.577 355.868 159.398 356.367C158.992 357.497 157.839 357.401 157.636 356.876C157.468 356.44 158.051 356.433 157.978 356.004C157.862 355.32 156.798 355.462 156.382 356.053C155.854 356.803 156.188 357.696 156.482 358.086C157.083 358.881 158.06 359.009 158.683 358.937C159.373 358.856 160.145 358.46 160.624 357.816C161.365 356.82 161.393 355.685 161.148 354.845C160.881 353.93 160.328 353.097 159.165 352.482C157.45 351.576 155.56 352.065 154.351 353.057C153.55 353.715 153.072 354.336 152.277 354.778C150.299 355.878 147.052 356.031 145.113 353.323C144.251 352.12 143.759 350.235 144.662 348.498C145.58 346.733 147.271 345.994 148.722 346.166C150.683 346.398 151.793 348.036 151.771 349.396C151.754 350.43 150.907 351.681 149.853 351.898C149.056 352.063 148.241 351.666 147.909 351.087C147.53 350.427 148.007 349.395 148.6 349.589C149.068 349.741 148.724 350.099 149.132 350.282C149.814 350.588 150.243 349.347 149.802 348.69C148.999 347.495 147.322 347.905 146.627 348.759C145.868 349.693 145.936 350.736 146.19 351.462C146.401 352.065 146.827 352.757 147.587 353.218C149.41 354.325 151.901 353.688 153.099 351.391C153.823 350.004 153.548 348.847 153.224 347.448C152.945 346.245 152.892 344.854 153.612 343.468C154.423 341.905 155.567 341.114 156.685 340.721C157.775 340.338 159.18 340.319 160.474 340.955Z" fill="white"/>
</g>
<defs>
<filter id="filter0_d" x="0" y="0" width="404" height="525" filterUnits="userSpaceOnUse" color-interpolation-filters="sRGB">
<feFlood flood-opacity="0" result="BackgroundImageFix"/>
<feColorMatrix in="SourceAlpha" type="matrix" values="0 0 0 0 0 0 0 0 0 0 0 0 0 0 0 0 0 0 127 0"/>
<feOffset/>
<feGaussianBlur stdDeviation="2"/>
<feColorMatrix type="matrix" values="0 0 0 0 0 0 0 0 0 0 0 0 0 0 0 0 0 0 0.25 0"/>
<feBlend mode="normal" in2="BackgroundImageFix" result="effect1_dropShadow"/>
<feBlend mode="normal" in="SourceGraphic" in2="effect1_dropShadow" result="shape"/>
</filter>
<clipPath id="clip0">
<rect width="396" height="517" fill="white" transform="translate(4 4)"/>
</clipPath>
</defs>
</svg>
